<?xml version="1.0" standalone="no"?>
<!DOCTYPE svg PUBLIC "-//W3C//DTD SVG 20010904//EN"
 "http://www.w3.org/TR/2001/REC-SVG-20010904/DTD/svg10.dtd">
<svg version="1.0" xmlns="http://www.w3.org/2000/svg"
 width="1024.000000pt" height="1024.000000pt" viewBox="0 0 1024.000000 1024.000000"
 preserveAspectRatio="xMidYMid meet">

<g transform="translate(0.000000,1024.000000) scale(0.100000,-0.100000)"
fill="#000000" stroke="none">
<path d="M2690 9340 l-915 -5 -103 -28 c-329 -90 -572 -251 -767 -509 -121
-159 -216 -369 -257 -568 -11 -54 -13 -604 -13 -3125 l0 -3060 27 -105 c145
-555 526 -928 1068 -1046 82 -18 208 -19 3320 -19 l3235 0 104 23 c259 58 479
173 657 344 195 187 318 400 396 684 l33 119 0 3060 c0 2948 -1 3063 -19 3140
-33 142 -67 238 -127 355 -123 240 -294 420 -539 565 -133 78 -304 139 -465
165 -77 13 -3921 19 -5635 10z m5595 -607 c150 -40 245 -94 354 -197 117 -112
204 -274 231 -431 8 -53 10 -800 8 -3030 l-3 -2960 -32 -95 c-96 -281 -304
-476 -583 -546 -73 -18 -175 -19 -3205 -19 l-3130 0 -85 22 c-209 56 -388 189
-497 371 -36 61 -76 163 -99 252 -18 73 -19 156 -19 3020 0 3339 -9 3000 85
3195 124 257 348 412 630 435 52 4 1483 7 3180 6 l3085 -1 80 -22z"/>
<path d="M4864 7729 c-652 -50 -1322 -366 -1758 -830 -384 -408 -619 -883
-708 -1430 -26 -164 -32 -546 -10 -694 16 -102 50 -268 62 -300 l8 -22 84 20
c107 25 313 27 408 4 35 -8 68 -13 72 -11 3 2 0 23 -7 47 -21 62 -52 227 -66
347 -19 167 -7 466 26 620 88 419 285 773 602 1080 287 279 583 445 963 540
202 50 248 55 525 55 232 0 272 -2 375 -23 370 -75 668 -214 961 -450 101 -81
280 -268 361 -377 314 -421 461 -935 407 -1423 -52 -474 -245 -890 -569 -1226
-317 -329 -728 -544 -1196 -627 -170 -30 -480 -33 -652 -6 -227 36 -428 101
-639 207 l-153 76 0 -82 c0 -158 -42 -320 -111 -430 -34 -52 -36 -48 42 -89
133 -69 353 -147 544 -193 208 -50 321 -63 570 -69 200 -5 250 -2 385 16 352
50 614 131 914 284 586 299 1026 778 1254 1364 135 348 190 669 179 1051 -6
221 -23 345 -72 542 -123 490 -368 915 -736 1277 -541 532 -1306 811 -2065
752z"/>
<path d="M5005 6545 c-50 -20 -102 -69 -126 -120 -14 -31 -19 -64 -19 -150 l0
-111 -70 -12 c-162 -28 -293 -89 -398 -187 -92 -86 -145 -165 -176 -264 -32
-104 -39 -175 -26 -272 21 -154 86 -279 197 -379 78 -70 231 -144 367 -177
l106 -27 0 -239 0 -239 -29 5 c-62 13 -129 54 -201 125 -88 86 -134 113 -198
114 -82 1 -132 -19 -188 -76 -58 -60 -80 -120 -71 -191 10 -70 43 -123 127
-207 64 -63 96 -86 182 -127 104 -51 215 -85 321 -97 l57 -7 0 -75 c0 -91 14
-140 52 -187 101 -122 295 -96 370 49 13 25 21 67 25 126 l6 89 41 6 c303 47
534 224 611 468 47 146 29 349 -42 479 -92 168 -274 296 -504 353 -103 26
-107 28 -113 57 -10 51 -7 416 4 423 22 14 122 -50 177 -112 71 -81 119 -107
198 -107 48 -1 71 5 113 28 83 46 122 111 122 204 0 183 -211 361 -516 434
l-94 23 0 85 c-1 104 -13 163 -45 212 -51 77 -172 116 -260 83z m-145 -1036
l0 -191 -27 7 c-167 40 -233 201 -130 314 27 30 93 60 130 61 l27 0 0 -191z
m544 -774 c48 -23 102 -85 117 -134 27 -91 -36 -184 -145 -216 -31 -9 -60 -14
-65 -11 -11 7 -15 293 -5 353 6 39 7 41 34 33 15 -4 44 -16 64 -25z"/>
<path d="M2688 3921 c-111 -6 -119 -7 -145 -34 l-28 -27 -5 -203 -5 -202 -200
-3 c-224 -3 -237 -7 -254 -69 -14 -49 -14 -257 0 -306 7 -26 21 -44 42 -57 29
-18 51 -20 225 -20 l192 0 0 -172 c0 -284 3 -288 222 -288 l150 0 34 34 34 34
0 196 0 196 185 0 c282 0 285 2 285 240 l0 152 -29 29 c-18 18 -40 29 -58 29
-15 1 -106 0 -200 0 l-173 -1 -1 33 c-1 18 -2 40 -3 48 -2 8 -3 86 -4 172 -2
157 -2 158 -29 188 -33 36 -63 40 -235 31z"/>
</g>
</svg>
